<svg xmlns="http://www.w3.org/2000/svg" viewBox="0 0 865.76 682.89"><path d="M294.43,299.78H101V46.61H294.43Zm-192.48-1H293.43V47.61H102Z" fill="#2f7775"/><rect x="166.71" y="266.65" width="61.97" height="60.83" fill="#fff"/><path d="M229.17,328h-63V266.15h63Zm-62-1h61V267.15h-61Z" fill="#2f7775"/><path d="M136.08,111.27c-.65,4.58-1,19.08,19.12,27a1.23,1.23,0,0,0,1.67-.95c.5-3.09,2.6-9.85,11.49-10a6.34,6.34,0,0,1,4.09,1.43c2.83,2.29,7.89,7.53,7.32,15.2a6.3,6.3,0,0,1-2.3,4.42c-5.34,4.37-21.66,14.14-43.65-5.9,0,0-15.64-13.75-12.51-42.63a20.69,20.69,0,0,1,4-10.24,17.92,17.92,0,0,1,12.91-7.21A6,6,0,0,1,143,84.09a30.33,30.33,0,0,1,6.57,9.7,9.91,9.91,0,0,1-.5,8.63c-1.57,2.79-4.7,6.25-11.8,7.57A1.52,1.52,0,0,0,136.08,111.27Z" fill="#f4b541"/><rect x="145.48" y="75.51" width="12.73" height="1" transform="translate(13.72 174.78) rotate(-62.16)" fill="#2f7775"/><rect x="153.11" y="86.76" width="15.19" height="1" transform="translate(-15.49 38.32) rotate(-12.98)" fill="#2f7775"/><rect x="151.12" y="83.03" width="6.38" height="1" transform="translate(-20.42 99.63) rotate(-33.69)" fill="#2f7775"/><rect x="266.88" y="107.76" width="195.86" height="366.16" rx="17.73" fill="#2f7775"/><rect x="653.21" y="229.09" width="111.79" height="70.95" rx="5.58" fill="#2f7775"/><g opacity="0.4"><rect x="653.21" y="229.09" width="111.79" height="70.95" rx="5.58" fill="#fff"/></g><path d="M765,234.67v6.56H653.21v-6.56a5.58,5.58,0,0,1,5.58-5.58H759.41A5.58,5.58,0,0,1,765,234.67Z" fill="#2f7775"/><rect x="658.53" y="234.66" width="5.55" height="1" transform="translate(17.77 515.32) rotate(-43.1)" fill="#fff"/><rect x="660.55" y="232.39" width="1" height="5.55" transform="translate(59.19 595.78) rotate(-50.51)" fill="#fff"/><path d="M670,237.75a2.59,2.59,0,1,1,2.59-2.59A2.6,2.6,0,0,1,670,237.75Zm0-4.18a1.59,1.59,0,1,0,1.59,1.59A1.6,1.6,0,0,0,670,233.57Z" fill="#fff"/><path d="M679.07,237.75a2.59,2.59,0,1,1,2.58-2.59A2.59,2.59,0,0,1,679.07,237.75Zm0-4.18a1.59,1.59,0,1,0,1.58,1.59A1.59,1.59,0,0,0,679.07,233.57Z" fill="#fff"/><g opacity="0.4"><rect x="666.23" y="250.34" width="84.86" height="7.21" fill="#fff"/></g><g opacity="0.4"><rect x="666.23" y="264.12" width="84.86" height="7.21" fill="#fff"/></g><g opacity="0.4"><rect x="666.23" y="275.75" width="40.09" height="7.21" fill="#fff"/></g><rect x="720.48" y="278.41" width="36.55" height="16.31" rx="8.16" fill="#2f7775"/><path d="M632,653.75c-15.56,9.36-34.52,2-34.52,2a53.09,53.09,0,0,0-12.78-1.51c-16.2.32-22.43-7.54-24-10a3.35,3.35,0,0,1-.5-1.6,6.73,6.73,0,0,1,1.42-4.47.76.76,0,0,0,.08-.11c4.23-5.36,15.91-6.06,15.91-6.06,14.42-1.77,14-5.31,14-5.31L621.08,619a25.4,25.4,0,0,0,5.19,12.9c4.15,4.91,5.46,11,5.8,15.49,0,0,0,.1,0,.14A32,32,0,0,1,632,653.75Z" fill="#f4b541"/><path d="M519,652.36c-8.09,5.31-21.88,2.4-21.88,2.4a47.08,47.08,0,0,0-22.26,0c-15.86,5.08-28.45-4.08-32.15-7.22a2.58,2.58,0,0,1-.81-2.64,10.42,10.42,0,0,1,1.75-3.45.44.44,0,0,1,.08-.11c5.55-7.22,19.88-9.72,19.88-9.72,19.22-4.43,24.78-12.65,24.78-12.65l28.33,11.76c1.71,4.77,2.2,11.41,2.31,16.08v.13C519.13,650.13,519,652.36,519,652.36Z" fill="#f4b541"/><path d="M622.6,618.85c-16.82,13.78-37.94,8.34-37.94,8.34-2.65-6.07-2.53-29.34-2.53-29.34-5.43-5.31-6.19-23-6.19-23-1.39-12.77-8.73-27.07-8.73-27.07-6.32-12.64-10.37-47-10.37-47-5.31-28.33-7.84-38.06-7.84-38.06-.88,4.17-4.55,15.93-4.55,15.93-8.1,19.73-13.79,55.14-13.79,55.14-3.41,17.45-3.16,38.19-3.16,38.19.13,10-3.67,20.61-3.67,20.61-2.15,6.2-3,15.56-3,15.56l-.38,25.67c-21.75.5-38.95-17.33-38.95-17.33-1-13.4,2-19.22,2-19.22,3.42-9.48,2.15-16.19,2.15-16.19-1.64-12.26.51-18.33.51-18.33,1.77-7.59,1.26-20.74,1.26-20.74,1-28.2,4.94-45.53,4.94-45.53a148.25,148.25,0,0,0,2.9-19.73c.38-32.12,9.24-60.57,9.24-60.57,8.47-32.88,17.7-58.05,17.7-58.05l63,1.77c5.06,11.13,7.59,40.34,7.59,40.34s2.53,35.67,2,53.37a154,154,0,0,0,2.53,32.25c.5,10.62,6.32,31.49,6.32,31.49,3.29,11.76,7.59,32.37,7.59,32.37a117.29,117.29,0,0,1,7.84,33.89A162.1,162.1,0,0,1,622.6,618.85Z" fill="#2f7775"/><g opacity="0.4"><rect x="280.77" y="137.53" width="168.07" height="297.94" fill="#fff"/></g><g opacity="0.2"><circle cx="302.15" cy="126.4" r="4.05"/></g><g opacity="0.2"><circle cx="314.79" cy="126.4" r="4.05"/></g><g opacity="0.2"><circle cx="430.38" cy="126.4" r="4.05"/></g><g opacity="0.2"><rect x="345.14" y="125.01" width="37.43" height="2.78" rx="1.39"/></g><rect x="302.4" y="161.69" width="127.47" height="84.98" rx="13.33" fill="#fff"/><path d="M402,227.69H330.49V183.2H402Zm-69.55-2H400V185.2H332.49Z" fill="#f4b541"/><polygon points="366.9 211.37 330.89 185 332.08 183.39 366.88 208.87 400.44 183.4 401.64 184.99 366.9 211.37" fill="#f4b541"/><rect x="326.86" y="213.9" width="34.65" height="2" transform="translate(-54.31 291.38) rotate(-42.84)" fill="#f4b541"/><rect x="388.11" y="197.5" width="2" height="34.06" transform="translate(-38.86 334.01) rotate(-44.47)" fill="#f4b541"/><circle cx="402.11" cy="182.99" r="9.29" fill="#2f7775"/><g opacity="0.4"><rect x="309.23" y="277.65" width="113.12" height="14.8" rx="7.4" fill="#fff"/></g><g opacity="0.4"><rect x="309.23" y="312.3" width="113.12" height="14.8" rx="7.4" fill="#fff"/></g><g opacity="0.4"><rect x="309.19" y="349.61" width="113.12" height="14.8" rx="7.4" fill="#fff"/></g><g opacity="0.4"><rect x="309.19" y="384.26" width="113.12" height="14.8" rx="7.4" fill="#fff"/></g><path d="M538.76,218.85s.5,6.45.5,9.61l27.82,4.42s-.12-13.15,2.39-20.1c0-.13.09-.26.14-.38,2.66-6.83,2.15-8.35,2.15-8.35l-7.08-4.81Z" fill="#b65052"/><path d="M538.76,218.85l.5,9.61s22.13.93,24.47-17.24Z" fill="#a53742"/><path d="M659.15,342.4s-11.51,7.84-25.67,17.07c-8.15,5.31-13.5,7.65-16.57,8.68-.6.2-1.11.35-1.54.47a3.15,3.15,0,0,1-2.9-.7l-7.7-6.93c-11-10.12-10.88-25-10.88-25-3.92,6.58-5.69,18.34-5.69,18.34-1.39,8.85-3,8.72-3,8.72l-34-2.65c-23.9,4.68-28.83-.63-28.83-.63-4.18-3.92-9.11-27.7-9.11-27.7-6.87-10.15-6.17-28.54-5.66-35.13v0c.11-1.4.21-2.25.22-2.37h0a73,73,0,0,0-15.56,8.39,117.62,117.62,0,0,0-13.65,11c-8.77,8-24.69,10.06-32.44,10.57a10.17,10.17,0,0,1-7.89-2.94c-10.21-10.15-22.57-28.9-22.57-28.9L436.2,268l14.29,14.8,51.34-35.54a33.3,33.3,0,0,1,12-4.68c14.29-3.29,19-5.69,19-5.69l23.27-3.16,15.56,6.7c18.36,4.4,30,10.68,35.49,14.23a12.49,12.49,0,0,1,5.25,7.05c3.38,11.71,5.16,27.92,5.16,27.92,2.41,20.36,7.72,31.11,7.72,31.11,8.6-4.94,20.36-6.83,20.36-6.83Z" fill="#f4b541"/><path d="M661.2,309.87l13.88-7a4.79,4.79,0,0,0,2.21-2.34l2.82-6.41a13.4,13.4,0,0,1,4.73-5.7l8.79-6a.62.62,0,0,1,1,.43c.28,2.32.48,8.2-4,11.53a3.85,3.85,0,0,0-1.39,2L688.18,300c0,.12.06,0,.19,0l25.39-.31a.91.91,0,0,1,.67,1.55l-13.79,12.67a3.27,3.27,0,0,1-1.84.92L691,316a5,5,0,0,0-2.4,1.06l-18.83,15.36-12.61-6.23Z" fill="#b65052"/><rect x="511.31" y="107.31" width="151.38" height="61.97" fill="#fff"/><path d="M663.19,169.77H510.81v-63H663.19Zm-151.38-1H662.19v-61H511.81Z" fill="#2f7775"/><polygon points="639.77 161.93 600.28 161.93 600.28 140.18 567.9 140.18 567.9 119.93 536.51 119.93 536.51 145.93 510.84 145.93 510.84 144.93 535.51 144.93 535.51 118.93 568.9 118.93 568.9 139.18 601.28 139.18 601.28 160.93 638.77 160.93 638.77 148.56 623.62 148.56 623.62 137.06 652.71 137.06 652.71 106.68 653.71 106.68 653.71 138.06 624.62 138.06 624.62 147.56 639.77 147.56 639.77 161.93" fill="#f4b541"/><rect x="453.27" y="65.7" width="49.19" height="48.06" rx="24.03" fill="#f4b541"/><circle cx="475.65" cy="95.8" r="4.55" fill="#fff"/><path d="M486.28,93.9a.5.5,0,0,1-.44-.25c-5.48-9.5-17-6.24-17.51-6.1a.5.5,0,1,1-.28-1c.13,0,12.78-3.62,18.66,6.56a.5.5,0,0,1-.19.68A.51.51,0,0,1,486.28,93.9Z" fill="#fff"/><path d="M493.86,91a.52.52,0,0,1-.45-.28c-9-18.38-27.52-10.24-28.3-9.88a.5.5,0,0,1-.41-.92c.2-.09,20.17-8.9,29.61,10.36a.51.51,0,0,1-.23.67A.54.54,0,0,1,493.86,91Z" fill="#fff"/><path d="M480.46,65.82l-1-.22a40.12,40.12,0,0,1,1.94-5.76l.92.38A37.91,37.91,0,0,0,480.46,65.82Z" fill="#2f7775"/><path d="M587.67,92.93l-.78-.63c1.9-2.31,5.38-4.38,10.35-6.18l.34.95C592.78,88.79,589.44,90.77,587.67,92.93ZM609,84l-.21-1c3.54-.74,7.51-1.42,11.8-2l.14,1C616.48,82.53,612.53,83.21,609,84Zm23.57-3.38-.1-1c3.81-.36,7.82-.68,11.92-.94l.06,1C640.38,79.89,636.38,80.2,632.59,80.57ZM656.39,79l0-1,1.76-.06a71,71,0,0,0,10-1l.18,1a70.38,70.38,0,0,1-10.18,1Zm23.51-4.19-.34-.94A43.69,43.69,0,0,0,690,68.61l.58.81A44.23,44.23,0,0,1,679.9,74.85Zm-120-4.29a35.81,35.81,0,0,1-11.42-3.78l.47-.88a34.63,34.63,0,0,0,11.1,3.67Zm12-.12-.15-1a53,53,0,0,0,11.36-3.11l.37.93A53.87,53.87,0,0,1,571.94,70.44Zm22.31-8.5-.52-.86,1.42-.86h0s3.11-2.57,8.21-6.15l.58.82c-5.08,3.57-8.18,6.11-8.21,6.14C595.2,61.37,594.72,61.66,594.25,61.94Zm104-1.78-.93-.37A15.68,15.68,0,0,0,698.44,54c0-.4,0-.8,0-1.18a16.89,16.89,0,0,0-.89-4.37l.94-.32a17.92,17.92,0,0,1,.95,4.62c0,.41,0,.82,0,1.25A16.82,16.82,0,0,1,698.29,60.16Zm-159.35-.63A103.94,103.94,0,0,0,529.77,52l.59-.81a106,106,0,0,1,9.26,7.59Zm-50.63-9.4-.76-.64a25.44,25.44,0,0,1,9.56-7.31l.39.92A24.58,24.58,0,0,0,488.31,50.13Zm125.57-1.8-.53-.85c3.48-2.14,7-4.14,10.39-5.94l.47.89C620.81,44.22,617.33,46.21,613.88,48.33Zm-94-2.82c-.58-.34-1.12-.64-1.62-.92a24.9,24.9,0,0,0-9.3-3l.11-1a26.08,26.08,0,0,1,9.68,3.16l1.63.94Zm170.87-6.35a34.53,34.53,0,0,0-9.9-6.21l.38-.93a35.78,35.78,0,0,1,10.18,6.39Zm-55.79-1.85-.39-.92a111.66,111.66,0,0,1,11.26-4.1l.29,1A107.28,107.28,0,0,0,634.93,37.31Zm22.71-6.65-.14-1a57.68,57.68,0,0,1,7.92-.57h0c1.38,0,2.74.06,4.06.17l-.09,1c-1.28-.11-2.62-.17-4-.17h0A57.22,57.22,0,0,0,657.64,30.66Z" fill="#2f7775"/><path d="M592.63,107.74a31.47,31.47,0,0,1-4.45-4.16l.76-.65a30.05,30.05,0,0,0,4.31,4Z" fill="#2f7775"/><path d="M632.08,647.5a38.32,38.32,0,0,1-18.9,5.25h-.75a26.55,26.55,0,0,1-8.95-1.59c-7.61-2.49-17.82-1.77-17.93-1.76-10.61-.46-16.79-3.95-20.12-6.8a19.28,19.28,0,0,1-3.84-4.42.76.76,0,0,0,.08-.11,18.85,18.85,0,0,0,3.85,4.44c3.31,2.83,9.47,6.3,20,6.76.1,0,10.34-.73,18,1.77a26.19,26.19,0,0,0,8.92,1.58,37.94,37.94,0,0,0,19.62-5.25S632.08,647.46,632.08,647.5Z" fill="#fff"/><path d="M519.06,646.94a28.37,28.37,0,0,1-10.86,2.21,48.69,48.69,0,0,1-9.29-.65c-18.86-1.37-30.46,1.11-30.58,1.14a34.2,34.2,0,0,1-6.45.64,25.32,25.32,0,0,1-6.75-.87,20.8,20.8,0,0,1-8.29-4.46,21.89,21.89,0,0,1-3.16-3.5.44.44,0,0,1,.08-.11,20.76,20.76,0,0,0,3.17,3.51c3.71,3.28,10.43,6.75,21.38,4.66.11,0,11.73-2.51,30.62-1.13a50,50,0,0,0,9.27.64,28.33,28.33,0,0,0,10.86-2.21Z" fill="#fff"/><path d="M436.7,271.2l-15.81,24.28-26.81-39.33-6.72-4.22a7.79,7.79,0,0,1-3.07-3.68l-1-2.34c-1.89-1.77-7.46-2.91-7.46-2.91a4.71,4.71,0,0,1-2-.54,2.56,2.56,0,0,1-1.37-2.37l.1-7.58a4.53,4.53,0,0,1,1.24-3,18.9,18.9,0,0,0,3.68-5.71,2.76,2.76,0,0,1,1.64-1.55l4.05-1.44a.62.62,0,0,0,.29-1,44,44,0,0,1-7.83-16.59A1.39,1.39,0,0,1,378,202l21,21.74a5.39,5.39,0,0,1,1.17,1.91l5.9,17a5.13,5.13,0,0,0,1.39,2.1Z" fill="#b65052"/><path d="M552.12,161.07H569a0,0,0,0,1,0,0v43.71A18.21,18.21,0,0,1,550.81,223h0a18.21,18.21,0,0,1-18.21-18.21v-24.2A19.52,19.52,0,0,1,552.12,161.07Z" transform="translate(86.04 -160.47) rotate(17.96)" fill="#b65052"/><path d="M597.44,185.46s-4.81,7.71-7.72,13.41c0,0-9.86,21.24-22.26,19.22a12,12,0,0,1-1-7.46s-.12-3.92,3.42-4.81l-3.54-2.66-2.12,6.61a17.91,17.91,0,0,1-14.84,12.43s-6.69,2.59-14.91-2.47l-5.73-3.88a4,4,0,0,1-1.74-3.33c0-3.13.34-8.84,1.78-11.25A69.17,69.17,0,0,1,547.32,205a2.91,2.91,0,0,0,2.68-.33,32.35,32.35,0,0,1,4.11-2.49,2.84,2.84,0,0,0,1.6-2.12c1-6.08,4.87-27.9,8.46-36.18,0,0-14.54-7-24.65,6.53,0,0-4.18-26.68,12.77-20.49,0,0,13.78-8.59,20.49,1.78,0,0,4,3.66,6.32,11.38,0,0,1.9,6.32,7.21,9.23C586.31,172.31,597.18,179.52,597.44,185.46Z" fill="#6b210e"/><g opacity="0.2"><path d="M558.86,151.82s12.14.63,15.69,10.75C574.55,162.57,573.79,150.18,558.86,151.82Z"/></g><g opacity="0.2"><path d="M568.48,159.79s2.15,3.67,1.64,9.86c0,0-1,6.71,2.28,7.72,0,0-2.15-2.28-.89-9C571.51,168.39,572.14,162.07,568.48,159.79Z"/></g><g opacity="0.2"><path d="M574.55,181s1,5.7,5.31,7.09C579.86,188.12,572.9,188.62,574.55,181Z"/></g><g opacity="0.2"><path d="M580,190.14a22.57,22.57,0,0,1-.38,12.77S585.17,195.58,580,190.14Z"/></g><g opacity="0.2"><path d="M552.29,149.92s-11.89.13-12.77,20.49C539.52,170.41,535.34,143.73,552.29,149.92Z"/></g><ellipse cx="571.73" cy="199.97" rx="7.86" ry="5.06" transform="translate(68.78 537.47) rotate(-53.14)" fill="#b65052"/><path d="M532.81,236.93s31,2,38.83,3.54a11.35,11.35,0,0,0-2.41-8.6l-30-4.25s-2.09-.55-3.1,2.61Z" fill="#2f7775"/><path d="M661.3,353.91s-15.68-24.54-15.68-40a102.22,102.22,0,0,0,12.14-3.8s2.91-2.27,3.92.89l9.48,25.65a2.27,2.27,0,0,1-.18,1.95c-.86,1.42-2.58,4.36-4.37,7.93C666.61,346.57,663.7,353.28,661.3,353.91Z" fill="#2f7775"/><path d="M412.54,295.49,436.2,268l14.29,14.8-30.94,34.74a1.12,1.12,0,0,1-1.76-.13,37.51,37.51,0,0,1-6-19.87A3.19,3.19,0,0,1,412.54,295.49Z" fill="#2f7775"/><g opacity="0.2"><path d="M616.91,368.15c-.6.2-1.11.35-1.54.47a3.15,3.15,0,0,1-2.9-.7l-7.7-6.93c-11-10.12-10.88-25-10.88-25-3.92,6.58-5.69,18.34-5.69,18.34S582.58,341.83,595,327C595,327,597.85,355.15,616.91,368.15Z"/></g><g opacity="0.2"><path d="M584.66,627.19c-2.65-6.07-2.53-29.34-2.53-29.34-5.43-5.31-6.19-23-6.19-23-1.39-12.77-8.73-27.07-8.73-27.07-6.32-12.64-10.37-47-10.37-47-5.31-28.33-7.84-38.06-7.84-38.06,1.06-.07,10.63-17.47,12.62-45.39-.55,9.34-2.9,66,17.79,121C579.41,538.23,603.7,588.18,584.66,627.19Z"/></g><g opacity="0.2"><path d="M522.32,359.73c-4.18-3.92-9.11-27.7-9.11-27.7-6.87-10.15-6.17-28.54-5.66-35.13v0l.22-2.37h0s8-10.94,16.25-11.19C524,283.28,515.8,307.05,522.32,359.73Z"/></g><path d="M383.33,245.91c-1.89-1.77-7.46-2.91-7.46-2.91a4.71,4.71,0,0,1-2-.54,9,9,0,0,1,6-4.45,1.46,1.46,0,0,1,1.76,1.61A7.81,7.81,0,0,0,383.33,245.91Z" fill="#a53742"/><path d="M728.82,289.6A1.94,1.94,0,0,1,728,289a1.55,1.55,0,0,1-.29-.92h.88a1.22,1.22,0,0,0,.37.76,1.62,1.62,0,0,0,1.88,0,1,1,0,0,0,.35-.76.88.88,0,0,0-.2-.59,1.41,1.41,0,0,0-.51-.35c-.2-.08-.47-.16-.81-.26a8.83,8.83,0,0,1-1-.32,1.71,1.71,0,0,1-.65-.52,1.53,1.53,0,0,1-.27-.95,1.66,1.66,0,0,1,1-1.54,2.57,2.57,0,0,1,1.1-.22,2.3,2.3,0,0,1,1.47.45A1.65,1.65,0,0,1,732,285h-.91a1,1,0,0,0-.38-.65,1.42,1.42,0,0,0-.9-.28,1.29,1.29,0,0,0-.85.27.92.92,0,0,0-.33.76.8.8,0,0,0,.2.56,1.27,1.27,0,0,0,.48.34c.19.07.46.16.81.26a7.54,7.54,0,0,1,1,.34,1.71,1.71,0,0,1,.65.52,1.45,1.45,0,0,1,.28.95,1.61,1.61,0,0,1-.25.88,1.76,1.76,0,0,1-.73.67,2.4,2.4,0,0,1-1.14.25A2.71,2.71,0,0,1,728.82,289.6Z" fill="#fff"/><path d="M734.12,284.07v2.13h2.32v.68h-2.32v2.2h2.6v.68h-3.43v-6.38h3.43v.69Z" fill="#fff"/><path d="M743,289.76h-.83l-3.35-5.07v5.07H738v-6.38h.83l3.35,5.07v-5.07H743Z" fill="#fff"/><path d="M748.19,283.78a2.73,2.73,0,0,1,1.17,1.11,3.73,3.73,0,0,1,0,3.4,2.69,2.69,0,0,1-1.17,1.09,4,4,0,0,1-1.8.38h-2v-6.37h2A3.92,3.92,0,0,1,748.19,283.78Zm.08,4.64a2.48,2.48,0,0,0,.65-1.83,2.58,2.58,0,0,0-.65-1.86,2.55,2.55,0,0,0-1.88-.66h-1.15v5h1.15A2.52,2.52,0,0,0,748.27,288.42Z" fill="#fff"/><path d="M404.13,180.17h-3.5v2.28a1.62,1.62,0,0,1,.68-.53,2.23,2.23,0,0,1,1-.2,2.37,2.37,0,0,1,1.35.34,2,2,0,0,1,.75.89,3.17,3.17,0,0,1-.05,2.44,2,2,0,0,1-.82.9,2.66,2.66,0,0,1-1.38.33,2.56,2.56,0,0,1-1.69-.54,2.21,2.21,0,0,1-.79-1.44h.89a1.45,1.45,0,0,0,.55.89,1.7,1.7,0,0,0,1.05.32,1.47,1.47,0,0,0,1.19-.47,1.89,1.89,0,0,0,.4-1.26,1.66,1.66,0,0,0-.4-1.2,1.54,1.54,0,0,0-1.18-.42,1.65,1.65,0,0,0-.92.25,1.48,1.48,0,0,0-.57.69h-.86v-4.07h4.34Z" fill="#fff"/><circle cx="536.69" cy="119.97" r="3.05" fill="#2f7775"/><g opacity="0.2"><circle cx="364.81" cy="456.44" r="11.5"/></g><path d="M206.44,314.37a21.7,21.7,0,0,1-10.58,2.37c-9.75,0-18-7.13-18-18.54,0-12.24,8.5-22.82,21.69-22.82,10.34,0,17.3,7.25,17.3,17.17,0,8.92-5,14.15-10.58,14.15-2.38,0-4.58-1.61-4.4-5.23h-.24c-2.08,3.51-4.81,5.23-8.38,5.23s-6.42-2.79-6.42-7.49a14,14,0,0,1,14.09-14.09,15.76,15.76,0,0,1,6.36,1.25l-2,10.76c-.89,4.52-.18,6.6,1.78,6.66,3,.06,6.42-4,6.42-10.88,0-8.62-5.17-14.8-14.38-14.8-9.69,0-17.83,7.67-17.83,19.73,0,9.93,6.48,16.05,15.27,16.05a18.53,18.53,0,0,0,9-2.08Zm-3.27-25.68a10.24,10.24,0,0,0-3-.42c-5.23,0-9.45,4.94-9.45,10.7,0,2.62,1.3,4.52,3.92,4.52,3.45,0,6.6-4.4,7.25-8.08Z" fill="#2f7775"/><path d="M234.11,391.7a36.72,36.72,0,1,0-68.35,18.61h0l.1.14c1.41,2.38,3.17,4.08,4.95,6.58l21.32,28.33a6.64,6.64,0,0,0,10.56,0l21-27.86a82,82,0,0,0,5.33-7.09l.08-.1h0A36.68,36.68,0,0,0,234.11,391.7Z" fill="#f4b541"/><ellipse cx="197.41" cy="391.97" rx="21.91" ry="21.98" fill="#fff"/></svg>